# xmcd
#
# Track frame offsets:
#	150
#	17449
#	29020
#	47515
#	59986
#	73473
#	94132
#	117669
#	132033
#	146923
#	162726
#	185107
#	197406
#	211998
#	231176
#	244206
#	260917
#	279282
#	298553
#	314095
#
# Disc length: 4400 seconds
# Revision: 12
# Processed by: cddbd v1.5.2PL0 Copyright (c) Steve Scherf et al.
# Submitted via: dBpowerAMP V12.0
#
DISCID=4e112e14
DTITLE=Chris LeDoux - 20 Greatest Hits
DYEAR=1999
DGENRE=Country
TTITLE0=Life Is A Highway
TTITLE1=Whatcha Gonna Do With A Cowboy (Duet With Garth Brooks)
TTITLE2=Gravitational Pull
TTITLE3=Dallas Days And Ft. Worth Nights
TTITLE4=County Fair
TTITLE5=Bang A Drum (With Jon Bon Jovi)
TTITLE6=Stampede
TTITLE7=Look At You Girl
TTITLE8=Cadillac Cowboy
TTITLE9=Hooked On An 8 Second Ride
TTITLE10=Tougher Than The Rest
TTITLE11=Copenhagen (With Toby Keith)
TTITLE12=Even Cowboys Like A Little Rock And Roll (With Charlie Daniels)
TTITLE13=This Cowboy's Hat
TTITLE14=Cadillac Ranch
TTITLE15=Five Dollar Fine
TTITLE16=Honky Tonk World
TTITLE17=Little Long-Haired Outlaw
TTITLE18=For Your Love
TTITLE19=Western Skies
EXTD=
EXTT0=
EXTT1=
EXTT2=
EXTT3=
EXTT4=
EXTT5=
EXTT6=
EXTT7=
EXTT8=
EXTT9=
EXTT10=
EXTT11=
EXTT12=
EXTT13=
EXTT14=
EXTT15=
EXTT16=
EXTT17=
EXTT18=
EXTT19=
PLAYORDER=
